# xmcd
#
# Track frame offsets:
#	150
#	12180
#	28115
#	44576
#	58034
#	73271
#	85156
#	98054
#	113207
#	128593
#	141617
#	156400
#	169053
#	179935
#	201456
#
# Disc length: 2895 seconds
#
# Revision: 0
# Processed by: cddbd v1.5.2PL0 Copyright (c) Steve Scherf et al.
# Submitted via: dBpowerAMP V4.0
#
DISCID=e50b4d0f
DTITLE=Bap Kennedy - Domestic Blues
DYEAR=1900
DGENRE=Country
TTITLE0=01.Long Time A Comin´
TTITLE1=02.The Way I Love Her
TTITLE2=03.Unforgiven
TTITLE3=04.Domestic Blues
TTITLE4=05.I´ve Fallen In Love
TTITLE5=06.Vampire
TTITLE6=07.Angel Is The Devil
TTITLE7=08.The Backroom
TTITLE8=09.Mostly Water
TTITLE9=10.The Ghosts Of Belfast
TTITLE10=11.My Money
TTITLE11=12.The Shankill And The Falls
TTITLE12=13.Lowlife
TTITLE13=14.Dream Of You
TTITLE14=15.Dirty Old Road
EXTD=
EXTT0=
EXTT1=
EXTT2=
EXTT3=
EXTT4=
EXTT5=
EXTT6=
EXTT7=
EXTT8=
EXTT9=
EXTT10=
EXTT11=
EXTT12=
EXTT13=
EXTT14=
PLAYORDER=
